<svg xmlns="http://www.w3.org/2000/svg" viewBox="0 0 720 460" role="img" aria-label="Cartao PicPay Platinum">
  <defs>
    <linearGradient id="bg" x1="0%" y1="0%" x2="100%" y2="100%">
      <stop offset="0%" stop-color="#19d88f" />
      <stop offset="52%" stop-color="#1ce6af" />
      <stop offset="100%" stop-color="#17d6b6" />
    </linearGradient>
    <radialGradient id="glow" cx="54%" cy="44%" r="65%">
      <stop offset="0%" stop-color="rgba(255,255,255,0.18)" />
      <stop offset="100%" stop-color="rgba(255,255,255,0)" />
    </radialGradient>
    <linearGradient id="chip" x1="0%" y1="0%" x2="100%" y2="100%">
      <stop offset="0%" stop-color="#efefef" />
      <stop offset="100%" stop-color="#bfbfbf" />
    </linearGradient>
  </defs>

  <rect x="0" y="0" width="720" height="460" rx="22" fill="url(#bg)" />
  <rect x="0" y="0" width="720" height="460" rx="22" fill="url(#glow)" />

  <g transform="translate(36 28)" opacity="0.9" stroke="#0a3342" stroke-width="7" fill="none" stroke-linecap="round">
    <path d="M0 0c14 10 14 24 0 34" />
    <path d="M12 0c20 14 20 34 0 48" />
    <path d="M26 0c25 18 25 44 0 62" />
  </g>

  <g transform="translate(60 118)">
    <rect x="0" y="0" width="130" height="90" rx="12" fill="url(#chip)" stroke="#7a7a7a" stroke-width="2" />
    <path d="M44 0v90M86 0v90M0 30h130M0 60h130" stroke="#8d8d8d" stroke-width="2" />
  </g>

  <g transform="translate(592 62)">
    <circle cx="0" cy="0" r="40" fill="#ffbf1a" fill-opacity="0.95" />
    <circle cx="0" cy="56" r="40" fill="#ff3b3b" fill-opacity="0.95" />
    <circle cx="0" cy="28" r="40" fill="#ff9517" fill-opacity="0.9" />
  </g>

  <text x="654" y="352" transform="rotate(-90 654 352)" font-size="56" font-family="Arial, Helvetica, sans-serif" font-weight="700" fill="#0a1414">PicPay</text>
  <text x="120" y="372" transform="rotate(-90 120 372)" font-size="34" font-family="Arial, Helvetica, sans-serif" fill="#0a1414">platinum</text>
</svg>
