<svg width="1200" height="800" viewBox="0 0 1200 800" fill="none" xmlns="http://www.w3.org/2000/svg">
  <defs>
    <linearGradient id="bg" x1="600" y1="0" x2="600" y2="800" gradientUnits="userSpaceOnUse">
      <stop stop-color="#0B0F16"/>
      <stop offset="1" stop-color="#04070B"/>
    </linearGradient>
    <linearGradient id="tower" x1="600" y1="120" x2="600" y2="760" gradientUnits="userSpaceOnUse">
      <stop stop-color="#1A2230"/>
      <stop offset="1" stop-color="#0A111A"/>
    </linearGradient>
    <linearGradient id="glass" x1="600" y1="180" x2="600" y2="700" gradientUnits="userSpaceOnUse">
      <stop stop-color="#243447" stop-opacity="0.9"/>
      <stop offset="1" stop-color="#121C27" stop-opacity="0.85"/>
    </linearGradient>
    <filter id="glow" x="0" y="0" width="1200" height="800" filterUnits="userSpaceOnUse" color-interpolation-filters="sRGB">
      <feGaussianBlur stdDeviation="30"/>
    </filter>
  </defs>

  <rect width="1200" height="800" fill="url(#bg)"/>
  <circle cx="990" cy="120" r="56" fill="#2C3A4D"/>
  <circle cx="220" cy="140" r="44" fill="#1A2636"/>

  <g filter="url(#glow)" opacity="0.35">
    <circle cx="600" cy="720" r="140" fill="#4AA3FF"/>
  </g>

  <rect x="340" y="130" width="520" height="610" rx="34" fill="url(#tower)" stroke="#2B3A4F" stroke-opacity="0.9" stroke-width="2"/>
  <rect x="385" y="190" width="430" height="470" rx="20" fill="url(#glass)" stroke="#314A66" stroke-opacity="0.7"/>
  <rect x="540" y="660" width="120" height="80" rx="12" fill="#141B25" stroke="#2E3D52"/>

  <g opacity="0.95">
    <rect x="425" y="230" width="62" height="42" rx="6" fill="#FFCC66"/>
    <rect x="515" y="230" width="62" height="42" rx="6" fill="#7AB5FF"/>
    <rect x="605" y="230" width="62" height="42" rx="6" fill="#9AD0FF"/>
    <rect x="695" y="230" width="62" height="42" rx="6" fill="#FFD98B"/>

    <rect x="425" y="290" width="62" height="42" rx="6" fill="#74A8E8"/>
    <rect x="515" y="290" width="62" height="42" rx="6" fill="#FFC760"/>
    <rect x="605" y="290" width="62" height="42" rx="6" fill="#7FB7FF"/>
    <rect x="695" y="290" width="62" height="42" rx="6" fill="#9BCFFF"/>

    <rect x="425" y="350" width="62" height="42" rx="6" fill="#8EC4FF"/>
    <rect x="515" y="350" width="62" height="42" rx="6" fill="#FFCA69"/>
    <rect x="605" y="350" width="62" height="42" rx="6" fill="#73A8EB"/>
    <rect x="695" y="350" width="62" height="42" rx="6" fill="#FFD487"/>

    <rect x="425" y="410" width="62" height="42" rx="6" fill="#FFD17B"/>
    <rect x="515" y="410" width="62" height="42" rx="6" fill="#85BCFF"/>
    <rect x="605" y="410" width="62" height="42" rx="6" fill="#7AB2F6"/>
    <rect x="695" y="410" width="62" height="42" rx="6" fill="#FFCB6B"/>

    <rect x="425" y="470" width="62" height="42" rx="6" fill="#8DC2FF"/>
    <rect x="515" y="470" width="62" height="42" rx="6" fill="#FFD385"/>
    <rect x="605" y="470" width="62" height="42" rx="6" fill="#7DB2F5"/>
    <rect x="695" y="470" width="62" height="42" rx="6" fill="#9DD1FF"/>

    <rect x="425" y="530" width="62" height="42" rx="6" fill="#7FB5FA"/>
    <rect x="515" y="530" width="62" height="42" rx="6" fill="#FFC85F"/>
    <rect x="605" y="530" width="62" height="42" rx="6" fill="#8EC3FF"/>
    <rect x="695" y="530" width="62" height="42" rx="6" fill="#FFD184"/>
  </g>

  <rect x="70" y="700" width="1060" height="70" rx="14" fill="#060B12"/>
  <rect x="90" y="720" width="1020" height="8" rx="4" fill="#0F1A28"/>
  <rect x="90" y="738" width="790" height="8" rx="4" fill="#0D1623"/>

  <path d="M600 60L670 130H530L600 60Z" fill="#253547" stroke="#395271"/>
</svg>
