<svg xmlns="http://www.w3.org/2000/svg" viewBox="0 0 96 96" role="img" aria-label="Wise">
  <rect width="96" height="96" fill="#81E35A" />
  <path
    d="M16 44H26L31 57L36 44H43L48 57L53 44H60L51 68H44L39 55L34 68H27L16 44Z"
    fill="#002b00"
  />
  <path
    d="M64 43.5C66.5 41.5 69.5 40.5 73.5 40.5C80 40.5 84 44 84 49.5C84 54.5 81 57.5 74.5 58.5L72 58.8C69.5 59.2 68 60.1 68 61.8C68 64 70.1 65.2 73.1 65.2C76 65.2 78.4 64.2 80.6 62.3L86 65.1C82.7 68.2 78.3 70 72.8 70C65.7 70 60.6 66.7 60.6 61.3C60.6 56.2 63.9 53.3 70.1 52.3L72.8 51.9C75.6 51.5 77 50.5 77 48.8C77 46.8 75.2 45.4 72.4 45.4C69.8 45.4 67.6 46.3 65.8 47.9Z"
    fill="#002b00"
  />
  <path d="M8 44H16L23 56L16 68H8L15 56Z" fill="#002b00" />
</svg>
